# Blender 3.6.22
# www.blender.org
mtllib Sphere.mtl
o Sphere
v 0.000000 0.831470 -0.555570
v 0.000000 0.555570 -0.831470
v 0.000000 0.195090 -0.980786
v 0.000000 0.000000 -1.000000
v 0.000000 -0.195090 -0.980786
v 0.000000 -0.555570 -0.831470
v 0.038060 0.980785 -0.191342
v 0.074658 0.923880 -0.375330
v 0.108386 0.831470 -0.544895
v 0.137950 0.707107 -0.693520
v 0.162212 0.555570 -0.815493
v 0.180240 0.382683 -0.906128
v 0.191342 0.195090 -0.961940
v 0.195090 0.000000 -0.980786
v 0.191342 -0.195090 -0.961940
v 0.180240 -0.382683 -0.906128
v 0.162212 -0.555570 -0.815493
v 0.137950 -0.707107 -0.693520
v 0.108386 -0.831470 -0.544895
v 0.074658 -0.923880 -0.375330
v 0.038060 -0.980785 -0.191342
v 0.074658 0.980785 -0.180240
v 0.146447 0.923880 -0.353554
v 0.212608 0.831470 -0.513280
v 0.270598 0.707107 -0.653282
v 0.318190 0.555570 -0.768178
v 0.353554 0.382683 -0.853554
v 0.375331 0.195090 -0.906128
v 0.382684 0.000000 -0.923880
v 0.375331 -0.195090 -0.906128
v 0.353554 -0.382683 -0.853554
v 0.318190 -0.555570 -0.768178
v 0.270598 -0.707107 -0.653282
v 0.212608 -0.831470 -0.513280
v 0.146447 -0.923880 -0.353554
v 0.074658 -0.980785 -0.180240
v 0.108386 0.980785 -0.162212
v 0.212608 0.923880 -0.318190
v 0.308658 0.831470 -0.461940
v 0.392848 0.707107 -0.587938
v 0.461940 0.555570 -0.691342
v 0.513280 0.382683 -0.768178
v 0.544895 0.195090 -0.815493
v 0.555571 0.000000 -0.831470
v 0.544895 -0.195090 -0.815493
v 0.513280 -0.382683 -0.768178
v 0.461940 -0.555570 -0.691342
v 0.392848 -0.707107 -0.587938
v 0.308658 -0.831470 -0.461940
v 0.212608 -0.923880 -0.318190
v 0.108386 -0.980785 -0.162212
v 0.137950 0.980785 -0.137950
v 0.270598 0.923880 -0.270598
v 0.392848 0.831470 -0.392848
v 0.500000 0.707107 -0.500000
v 0.587938 0.555570 -0.587938
v 0.653282 0.382683 -0.653282
v 0.693520 0.195090 -0.693520
v 0.707107 0.000000 -0.707107
v 0.693520 -0.195090 -0.693520
v 0.653282 -0.382683 -0.653282
v 0.587938 -0.555570 -0.587938
v 0.500000 -0.707107 -0.500000
v 0.392848 -0.831470 -0.392848
v 0.270598 -0.923880 -0.270598
v 0.137950 -0.980785 -0.137950
v 0.162212 0.980785 -0.108386
v 0.318190 0.923880 -0.212608
v 0.461940 0.831470 -0.308658
v 0.587938 0.707107 -0.392848
v 0.691342 0.555570 -0.461940
v 0.768178 0.382683 -0.513280
v 0.815494 0.195090 -0.544895
v 0.831470 0.000000 -0.555570
v 0.815494 -0.195090 -0.544895
v 0.768178 -0.382683 -0.513280
v 0.691342 -0.555570 -0.461940
v 0.587938 -0.707107 -0.392848
v 0.461940 -0.831470 -0.308658
v 0.318190 -0.923880 -0.212608
v 0.162212 -0.980785 -0.108386
v 0.000000 1.000000 0.000000
v 0.180240 0.980785 -0.074658
v 0.353554 0.923880 -0.146447
v 0.513280 0.831470 -0.212608
v 0.653282 0.707107 -0.270598
v 0.768178 0.555570 -0.318190
v 0.853554 0.382683 -0.353554
v 0.906128 0.195090 -0.375330
v 0.923880 0.000000 -0.382683
v 0.906128 -0.195090 -0.375330
v 0.853554 -0.382683 -0.353554
v 0.768178 -0.555570 -0.318190
v 0.653282 -0.707107 -0.270598
v 0.513280 -0.831470 -0.212608
v 0.353554 -0.923880 -0.146447
v 0.180240 -0.980785 -0.074658
v 0.191342 0.980785 -0.038060
v 0.375331 0.923880 -0.074658
v 0.544895 0.831470 -0.108386
v 0.693520 0.707107 -0.137950
v 0.815494 0.555570 -0.162212
v 0.906128 0.382683 -0.180240
v 0.961940 0.195090 -0.191342
v 0.980786 0.000000 -0.195090
v 0.961940 -0.195090 -0.191342
v 0.906128 -0.382683 -0.180240
v 0.815494 -0.555570 -0.162212
v 0.693520 -0.707107 -0.137950
v 0.544895 -0.831470 -0.108386
v 0.375331 -0.923880 -0.074658
v 0.191342 -0.980785 -0.038060
v 0.195090 0.980785 0.000000
v 0.382684 0.923880 0.000000
v 0.555571 0.831470 0.000000
v 0.707107 0.707107 -0.000000
v 0.831470 0.555570 0.000000
v 0.923880 0.382683 -0.000000
v 0.980786 0.195090 0.000000
v 1.000000 0.000000 0.000000
v 0.980786 -0.195090 0.000000
v 0.923880 -0.382683 -0.000000
v 0.831470 -0.555570 0.000000
v 0.707107 -0.707107 -0.000000
v 0.555571 -0.831470 0.000000
v 0.382684 -0.923880 0.000000
v 0.195090 -0.980785 0.000000
v 0.191342 0.980785 0.038060
v 0.375331 0.923880 0.074658
v 0.544895 0.831470 0.108386
v 0.693520 0.707107 0.137950
v 0.815494 0.555570 0.162212
v 0.906128 0.382683 0.180240
v 0.961940 0.195090 0.191342
v 0.980786 0.000000 0.195091
v 0.961940 -0.195090 0.191342
v 0.906128 -0.382683 0.180240
v 0.815494 -0.555570 0.162212
v 0.693520 -0.707107 0.137950
v 0.544895 -0.831470 0.108386
v 0.375331 -0.923880 0.074658
v 0.191342 -0.980785 0.038060
v 0.180240 0.980785 0.074658
v 0.353554 0.923880 0.146447
v 0.513280 0.831470 0.212608
v 0.653282 0.707107 0.270598
v 0.768178 0.555570 0.318190
v 0.853554 0.382683 0.353553
v 0.906128 0.195090 0.375330
v 0.923880 0.000000 0.382684
v 0.906128 -0.195090 0.375330
v 0.853554 -0.382683 0.353553
v 0.768178 -0.555570 0.318190
v 0.653282 -0.707107 0.270598
v 0.513280 -0.831470 0.212608
v 0.353554 -0.923880 0.146447
v 0.180240 -0.980785 0.074658
v 0.162212 0.980785 0.108386
v 0.318190 0.923880 0.212608
v 0.461940 0.831470 0.308658
v 0.587938 0.707107 0.392848
v 0.691342 0.555570 0.461940
v 0.768178 0.382683 0.513280
v 0.815494 0.195090 0.544895
v 0.831470 0.000000 0.555570
v 0.815494 -0.195090 0.544895
v 0.768178 -0.382683 0.513280
v 0.691342 -0.555570 0.461940
v 0.587938 -0.707107 0.392848
v 0.461940 -0.831470 0.308658
v 0.318190 -0.923880 0.212608
v 0.162212 -0.980785 0.108386
v 0.137950 0.980785 0.137950
v 0.270598 0.923880 0.270598
v 0.392848 0.831470 0.392848
v 0.500000 0.707107 0.500000
v 0.587938 0.555570 0.587938
v 0.653282 0.382683 0.653282
v 0.693520 0.195090 0.693520
v 0.707107 0.000000 0.707107
v 0.693520 -0.195090 0.693520
v 0.653282 -0.382683 0.653282
v 0.587938 -0.555570 0.587938
v 0.500000 -0.707107 0.500000
v 0.392848 -0.831470 0.392848
v 0.270598 -0.923880 0.270598
v 0.137950 -0.980785 0.137950
v 0.108386 0.980785 0.162212
v 0.212608 0.923880 0.318190
v 0.308658 0.831470 0.461940
v 0.392848 0.707107 0.587938
v 0.461940 0.555570 0.691342
v 0.513280 0.382683 0.768178
v 0.544895 0.195090 0.815493
v 0.555570 0.000000 0.831470
v 0.544895 -0.195090 0.815493
v 0.513280 -0.382683 0.768178
v 0.461940 -0.555570 0.691342
v 0.392848 -0.707107 0.587938
v 0.308658 -0.831470 0.461940
v 0.212608 -0.923880 0.318190
v 0.108386 -0.980785 0.162212
v 0.074658 0.980785 0.180240
v 0.146447 0.923880 0.353553
v 0.212608 0.831470 0.513280
v 0.270598 0.707107 0.653282
v 0.318190 0.555570 0.768178
v 0.353554 0.382683 0.853553
v 0.375330 0.195090 0.906128
v 0.382683 0.000000 0.923880
v 0.375330 -0.195090 0.906128
v 0.353554 -0.382683 0.853553
v 0.318190 -0.555570 0.768178
v 0.270598 -0.707107 0.653282
v 0.212608 -0.831470 0.513280
v 0.146447 -0.923880 0.353553
v 0.074658 -0.980785 0.180240
v 0.038060 0.980785 0.191342
v 0.074658 0.923880 0.375330
v 0.108386 0.831470 0.544895
v 0.137950 0.707107 0.693520
v 0.162212 0.555570 0.815493
v 0.180240 0.382683 0.906128
v 0.191342 0.195090 0.961940
v 0.195090 0.000000 0.980785
v 0.191342 -0.195090 0.961940
v 0.180240 -0.382683 0.906128
v 0.162212 -0.555570 0.815493
v 0.137950 -0.707107 0.693520
v 0.108386 -0.831470 0.544895
v 0.074658 -0.923880 0.375330
v 0.038060 -0.980785 0.191342
v -0.000000 0.980785 0.195090
v -0.000000 0.923880 0.382683
v -0.000000 0.831470 0.555570
v -0.000000 0.707107 0.707107
v -0.000000 0.555570 0.831470
v 0.000000 0.382683 0.923880
v -0.000000 0.195090 0.980785
v -0.000000 0.000000 1.000000
v -0.000000 -0.195090 0.980785
v 0.000000 -0.382683 0.923880
v -0.000000 -0.555570 0.831470
v -0.000000 -0.707107 0.707107
v -0.000000 -0.831470 0.555570
v -0.000000 -0.923880 0.382683
v -0.000000 -0.980785 0.195090
v -0.038060 0.980785 0.191342
v -0.074658 0.923880 0.375330
v -0.108387 0.831470 0.544895
v -0.137950 0.707107 0.693520
v -0.162212 0.555570 0.815493
v -0.180240 0.382683 0.906127
v -0.191342 0.195090 0.961940
v -0.195091 0.000000 0.980785
v -0.191342 -0.195090 0.961940
v -0.180240 -0.382683 0.906127
v -0.162212 -0.555570 0.815493
v -0.137950 -0.707107 0.693520
v -0.108387 -0.831470 0.544895
v -0.074658 -0.923880 0.375330
v -0.038060 -0.980785 0.191342
v -0.074658 0.980785 0.180240
v -0.146447 0.923880 0.353553
v -0.212608 0.831470 0.513280
v -0.270598 0.707107 0.653282
v -0.318190 0.555570 0.768178
v -0.353553 0.382683 0.853553
v -0.375331 0.195090 0.906127
v -0.382684 0.000000 0.923879
v -0.375331 -0.195090 0.906127
v -0.353553 -0.382683 0.853553
v -0.318190 -0.555570 0.768178
v -0.270598 -0.707107 0.653282
v -0.212608 -0.831470 0.513280
v -0.146447 -0.923880 0.353553
v -0.074658 -0.980785 0.180240
v -0.108386 0.980785 0.162212
v -0.212608 0.923880 0.318190
v -0.308658 0.831470 0.461940
v -0.392848 0.707107 0.587938
v -0.461940 0.555570 0.691342
v -0.513280 0.382683 0.768178
v -0.544895 0.195090 0.815493
v -0.555571 0.000000 0.831469
v -0.544895 -0.195090 0.815493
v -0.513280 -0.382683 0.768178
v -0.461940 -0.555570 0.691342
v -0.392848 -0.707107 0.587938
v -0.308658 -0.831470 0.461940
v -0.212608 -0.923880 0.318190
v -0.108386 -0.980785 0.162212
v -0.137950 0.980785 0.137950
v -0.270598 0.923880 0.270598
v -0.392848 0.831470 0.392847
v -0.500000 0.707107 0.500000
v -0.587938 0.555570 0.587938
v -0.653282 0.382683 0.653282
v -0.693520 0.195090 0.693520
v -0.707107 0.000000 0.707106
v -0.693520 -0.195090 0.693520
v -0.653282 -0.382683 0.653282
v -0.587938 -0.555570 0.587938
v -0.500000 -0.707107 0.500000
v -0.392848 -0.831470 0.392847
v -0.270598 -0.923880 0.270598
v -0.137950 -0.980785 0.137950
v 0.000000 -1.000000 0.000000
v -0.162212 0.980785 0.108386
v -0.318190 0.923880 0.212607
v -0.461940 0.831470 0.308658
v -0.587938 0.707107 0.392848
v -0.691342 0.555570 0.461940
v -0.768178 0.382683 0.513280
v -0.815494 0.195090 0.544895
v -0.831470 0.000000 0.555570
v -0.815494 -0.195090 0.544895
v -0.768178 -0.382683 0.513280
v -0.691342 -0.555570 0.461940
v -0.587938 -0.707107 0.392848
v -0.461940 -0.831470 0.308658
v -0.318190 -0.923880 0.212607
v -0.162212 -0.980785 0.108386
v -0.180240 0.980785 0.074658
v -0.353554 0.923880 0.146447
v -0.513280 0.831470 0.212607
v -0.653282 0.707107 0.270598
v -0.768178 0.555570 0.318189
v -0.853554 0.382683 0.353553
v -0.906128 0.195090 0.375330
v -0.923880 0.000000 0.382683
v -0.906128 -0.195090 0.375330
v -0.853554 -0.382683 0.353553
v -0.768178 -0.555570 0.318189
v -0.653282 -0.707107 0.270598
v -0.513280 -0.831470 0.212607
v -0.353554 -0.923880 0.146447
v -0.180240 -0.980785 0.074658
v -0.191342 0.980785 0.038060
v -0.375330 0.923880 0.074658
v -0.544895 0.831470 0.108386
v -0.693520 0.707107 0.137950
v -0.815493 0.555570 0.162211
v -0.906128 0.382683 0.180240
v -0.961940 0.195090 0.191341
v -0.980785 0.000000 0.195090
v -0.961940 -0.195090 0.191341
v -0.906128 -0.382683 0.180240
v -0.815493 -0.555570 0.162211
v -0.693520 -0.707107 0.137950
v -0.544895 -0.831470 0.108386
v -0.375330 -0.923880 0.074658
v -0.191342 -0.980785 0.038060
v -0.195090 0.980785 -0.000000
v -0.382684 0.923880 -0.000000
v -0.555570 0.831470 -0.000000
v -0.707107 0.707107 -0.000000
v -0.831470 0.555570 -0.000000
v -0.923880 0.382683 -0.000000
v -0.980786 0.195090 -0.000000
v -1.000000 0.000000 -0.000000
v -0.980786 -0.195090 -0.000000
v -0.923880 -0.382683 -0.000000
v -0.831470 -0.555570 -0.000000
v -0.707107 -0.707107 -0.000000
v -0.555570 -0.831470 -0.000000
v -0.382684 -0.923880 -0.000000
v -0.195090 -0.980785 -0.000000
v -0.191342 0.980785 -0.038060
v -0.375330 0.923880 -0.074658
v -0.544895 0.831470 -0.108386
v -0.693520 0.707107 -0.137950
v -0.815493 0.555570 -0.162212
v -0.906128 0.382683 -0.180240
v -0.961940 0.195090 -0.191342
v -0.980785 0.000000 -0.195091
v -0.961940 -0.195090 -0.191342
v -0.906128 -0.382683 -0.180240
v -0.815493 -0.555570 -0.162212
v -0.693520 -0.707107 -0.137950
v -0.544895 -0.831470 -0.108386
v -0.375330 -0.923880 -0.074658
v -0.191342 -0.980785 -0.038060
v -0.180240 0.980785 -0.074658
v -0.353553 0.923880 -0.146447
v -0.513280 0.831470 -0.212608
v -0.653282 0.707107 -0.270598
v -0.768178 0.555570 -0.318190
v -0.853554 0.382683 -0.353553
v -0.906128 0.195090 -0.375330
v -0.923879 0.000000 -0.382684
v -0.906128 -0.195090 -0.375330
v -0.853554 -0.382683 -0.353553
v -0.768178 -0.555570 -0.318190
v -0.653282 -0.707107 -0.270598
v -0.513280 -0.831470 -0.212608
v -0.353553 -0.923880 -0.146447
v -0.180240 -0.980785 -0.074658
v -0.162212 0.980785 -0.108386
v -0.318190 0.923880 -0.212608
v -0.461940 0.831470 -0.308658
v -0.587938 0.707107 -0.392848
v -0.691342 0.555570 -0.461940
v -0.768178 0.382683 -0.513280
v -0.815493 0.195090 -0.544895
v -0.831469 0.000000 -0.555570
v -0.815493 -0.195090 -0.544895
v -0.768178 -0.382683 -0.513280
v -0.691342 -0.555570 -0.461940
v -0.587938 -0.707107 -0.392848
v -0.461940 -0.831470 -0.308658
v -0.318190 -0.923880 -0.212608
v -0.162212 -0.980785 -0.108386
v -0.137950 0.980785 -0.137950
v -0.270598 0.923880 -0.270598
v -0.392847 0.831470 -0.392847
v -0.500000 0.707107 -0.500000
v -0.587938 0.555570 -0.587938
v -0.653282 0.382683 -0.653281
v -0.693520 0.195090 -0.693520
v -0.707106 0.000000 -0.707107
v -0.693520 -0.195090 -0.693520
v -0.653282 -0.382683 -0.653281
v -0.587938 -0.555570 -0.587938
v -0.500000 -0.707107 -0.500000
v -0.392847 -0.831470 -0.392847
v -0.270598 -0.923880 -0.270598
v -0.137950 -0.980785 -0.137950
v -0.108386 0.980785 -0.162212
v -0.212608 0.923880 -0.318190
v -0.308658 0.831470 -0.461940
v -0.392848 0.707107 -0.587938
v -0.461940 0.555570 -0.691342
v -0.513280 0.382683 -0.768178
v -0.544895 0.195090 -0.815493
v -0.555570 0.000000 -0.831469
v -0.544895 -0.195090 -0.815493
v -0.513280 -0.382683 -0.768178
v -0.461940 -0.555570 -0.691342
v -0.392848 -0.707107 -0.587938
v -0.308658 -0.831470 -0.461940
v -0.212608 -0.923880 -0.318190
v -0.108386 -0.980785 -0.162212
v -0.074658 0.980785 -0.180240
v -0.146447 0.923880 -0.353553
v -0.212607 0.831470 -0.513280
v -0.270598 0.707107 -0.653282
v -0.318189 0.555570 -0.768178
v -0.353553 0.382683 -0.853553
v -0.375330 0.195090 -0.906127
v -0.382683 0.000000 -0.923879
v -0.375330 -0.195090 -0.906127
v -0.353553 -0.382683 -0.853553
v -0.318189 -0.555570 -0.768178
v -0.270598 -0.707107 -0.653282
v -0.212607 -0.831470 -0.513280
v -0.146447 -0.923880 -0.353553
v -0.074658 -0.980785 -0.180240
v -0.038060 0.980785 -0.191342
v -0.074658 0.923880 -0.375330
v -0.108386 0.831470 -0.544895
v -0.137950 0.707107 -0.693520
v -0.162211 0.555570 -0.815493
v -0.180240 0.382683 -0.906127
v -0.191341 0.195090 -0.961940
v -0.195090 0.000000 -0.980785
v -0.191341 -0.195090 -0.961940
v -0.180240 -0.382683 -0.906127
v -0.162211 -0.555570 -0.815493
v -0.137950 -0.707107 -0.693520
v -0.108386 -0.831470 -0.544895
v -0.074658 -0.923880 -0.375330
v -0.038060 -0.980785 -0.191342
v 0.000000 0.980785 -0.195090
v 0.000000 0.923880 -0.382683
v 0.000000 0.707107 -0.707107
v 0.000000 0.382683 -0.923879
v 0.000000 -0.382683 -0.923879
v 0.000000 -0.707107 -0.707107
v 0.000000 -0.831470 -0.555570
v 0.000000 -0.923880 -0.382683
v 0.000000 -0.980785 -0.195090
vn -0.0000 -0.0000 -1.0000
vn -0.0000 0.1939 -0.9810
vn 0.1914 0.1939 -0.9622
vn 0.1951 -0.0000 -0.9808
vn -0.0000 0.9796 -0.2010
vn -0.0000 1.0000 -0.0000
vn 0.0392 0.9796 -0.1971
vn -0.0000 -1.0000 -0.0000
vn -0.0000 -0.9796 -0.2010
vn 0.0392 -0.9796 -0.1971
vn -0.0000 -0.1939 -0.9810
vn 0.1914 -0.1939 -0.9622
vn -0.0000 0.9217 -0.3879
vn 0.0757 0.9217 -0.3804
vn -0.0000 -0.3805 -0.9248
vn 0.1804 -0.3805 -0.9070
vn -0.0000 0.8286 -0.5598
vn 0.1092 0.8286 -0.5490
vn -0.0000 -0.5528 -0.8333
vn 0.1626 -0.5528 -0.8173
vn -0.0000 0.7041 -0.7101
vn 0.1385 0.7041 -0.6965
vn -0.0000 -0.7041 -0.7101
vn 0.1385 -0.7041 -0.6965
vn -0.0000 0.5528 -0.8333
vn 0.1626 0.5528 -0.8173
vn -0.0000 -0.8286 -0.5598
vn 0.1092 -0.8286 -0.5490
vn -0.0000 0.3805 -0.9248
vn 0.1804 0.3805 -0.9070
vn -0.0000 -0.9217 -0.3879
vn 0.0757 -0.9217 -0.3804
vn 0.3539 0.3805 -0.8544
vn 0.3754 0.1939 -0.9063
vn 0.1484 -0.9217 -0.3584
vn 0.0769 -0.9796 -0.1857
vn 0.3827 -0.0000 -0.9239
vn 0.0769 0.9796 -0.1857
vn 0.3754 -0.1939 -0.9063
vn 0.1484 0.9217 -0.3584
vn 0.3539 -0.3805 -0.8544
vn 0.2142 0.8286 -0.5172
vn 0.3189 -0.5528 -0.7699
vn 0.2718 0.7041 -0.6561
vn 0.2718 -0.7041 -0.6561
vn 0.3189 0.5528 -0.7699
vn 0.2142 -0.8286 -0.5172
vn 0.5138 -0.3805 -0.7689
vn 0.4630 -0.5528 -0.6929
vn 0.3110 0.8286 -0.4654
vn 0.3945 0.7041 -0.5905
vn 0.3945 -0.7041 -0.5905
vn 0.4630 0.5528 -0.6929
vn 0.3110 -0.8286 -0.4654
vn 0.5138 0.3805 -0.7689
vn 0.2155 -0.9217 -0.3225
vn 0.5450 0.1939 -0.8157
vn 0.1117 -0.9796 -0.1671
vn 0.5556 -0.0000 -0.8315
vn 0.1117 0.9796 -0.1671
vn 0.5450 -0.1939 -0.8157
vn 0.2155 0.9217 -0.3225
vn 0.2743 -0.9217 -0.2743
vn 0.1421 -0.9796 -0.1421
vn 0.6937 0.1939 -0.6937
vn 0.7071 -0.0000 -0.7071
vn 0.1421 0.9796 -0.1421
vn 0.6937 -0.1939 -0.6937
vn 0.2743 0.9217 -0.2743
vn 0.6539 -0.3805 -0.6539
vn 0.3958 0.8286 -0.3958
vn 0.5893 -0.5528 -0.5893
vn 0.5021 0.7041 -0.5021
vn 0.5021 -0.7041 -0.5021
vn 0.5893 0.5528 -0.5893
vn 0.3958 -0.8286 -0.3958
vn 0.6539 0.3805 -0.6539
vn 0.4654 0.8286 -0.3110
vn 0.5905 0.7041 -0.3945
vn 0.6929 -0.5528 -0.4630
vn 0.5905 -0.7041 -0.3945
vn 0.6929 0.5528 -0.4630
vn 0.4654 -0.8286 -0.3110
vn 0.7689 0.3805 -0.5138
vn 0.3225 -0.9217 -0.2155
vn 0.8157 0.1939 -0.5450
vn 0.1671 -0.9796 -0.1117
vn 0.8315 -0.0000 -0.5556
vn 0.1671 0.9796 -0.1117
vn 0.8157 -0.1939 -0.5450
vn 0.3225 0.9217 -0.2155
vn 0.7689 -0.3805 -0.5138
vn 0.9063 0.1939 -0.3754
vn 0.9239 -0.0000 -0.3827
vn 0.1857 0.9796 -0.0769
vn 0.1857 -0.9796 -0.0769
vn 0.9063 -0.1939 -0.3754
vn 0.3584 0.9217 -0.1484
vn 0.8544 -0.3805 -0.3539
vn 0.5172 0.8286 -0.2142
vn 0.7699 -0.5528 -0.3189
vn 0.6561 0.7041 -0.2718
vn 0.6561 -0.7041 -0.2718
vn 0.7699 0.5528 -0.3189
vn 0.5172 -0.8286 -0.2142
vn 0.8544 0.3805 -0.3539
vn 0.3584 -0.9217 -0.1484
vn 0.8173 -0.5528 -0.1626
vn 0.6965 -0.7041 -0.1385
vn 0.6965 0.7041 -0.1385
vn 0.8173 0.5528 -0.1626
vn 0.5490 -0.8286 -0.1092
vn 0.9070 0.3805 -0.1804
vn 0.3804 -0.9217 -0.0757
vn 0.9622 0.1939 -0.1914
vn 0.1971 -0.9796 -0.0392
vn 0.9808 -0.0000 -0.1951
vn 0.1971 0.9796 -0.0392
vn 0.9622 -0.1939 -0.1914
vn 0.3804 0.9217 -0.0757
vn 0.9070 -0.3805 -0.1804
vn 0.5490 0.8286 -0.1092
vn 0.2010 -0.9796 -0.0000
vn 1.0000 -0.0000 -0.0000
vn 0.9810 -0.1939 -0.0000
vn 0.2010 0.9796 -0.0000
vn 0.3879 0.9217 -0.0000
vn 0.9248 -0.3805 -0.0000
vn 0.5598 0.8286 -0.0000
vn 0.8333 -0.5528 -0.0000
vn 0.7101 0.7041 -0.0000
vn 0.7101 -0.7041 -0.0000
vn 0.8333 0.5528 -0.0000
vn 0.5598 -0.8286 -0.0000
vn 0.9248 0.3805 -0.0000
vn 0.3879 -0.9217 -0.0000
vn 0.9810 0.1939 -0.0000
vn 0.6965 -0.7041 0.1385
vn 0.5490 -0.8286 0.1092
vn 0.8173 0.5528 0.1626
vn 0.9070 0.3805 0.1804
vn 0.3804 -0.9217 0.0757
vn 0.9622 0.1939 0.1914
vn 0.1971 -0.9796 0.0392
vn 0.9808 -0.0000 0.1951
vn 0.1971 0.9796 0.0392
vn 0.9622 -0.1939 0.1914
vn 0.3804 0.9217 0.0757
vn 0.9070 -0.3805 0.1804
vn 0.5490 0.8286 0.1092
vn 0.8173 -0.5528 0.1626
vn 0.6965 0.7041 0.1385
vn 0.1857 0.9796 0.0769
vn 0.3584 0.9217 0.1484
vn 0.9063 -0.1939 0.3754
vn 0.8544 -0.3805 0.3539
vn 0.5172 0.8286 0.2142
vn 0.7699 -0.5528 0.3189
vn 0.6561 0.7041 0.2718
vn 0.6561 -0.7041 0.2718
vn 0.7699 0.5528 0.3189
vn 0.5172 -0.8286 0.2142
vn 0.8544 0.3805 0.3539
vn 0.3584 -0.9217 0.1484
vn 0.9063 0.1939 0.3754
vn 0.1857 -0.9796 0.0769
vn 0.9239 -0.0000 0.3827
vn 0.6929 0.5528 0.4630
vn 0.7689 0.3805 0.5138
vn 0.4654 -0.8286 0.3110
vn 0.3225 -0.9217 0.2155
vn 0.8157 0.1939 0.5450
vn 0.1671 -0.9796 0.1117
vn 0.8315 -0.0000 0.5556
vn 0.1671 0.9796 0.1117
vn 0.8157 -0.1939 0.5450
vn 0.3225 0.9217 0.2155
vn 0.7689 -0.3805 0.5138
vn 0.4654 0.8286 0.3110
vn 0.6929 -0.5528 0.4630
vn 0.5905 0.7041 0.3945
vn 0.5905 -0.7041 0.3945
vn 0.6937 -0.1939 0.6937
vn 0.6539 -0.3805 0.6539
vn 0.2743 0.9217 0.2743
vn 0.3958 0.8286 0.3958
vn 0.5893 -0.5528 0.5893
vn 0.5021 0.7041 0.5021
vn 0.5021 -0.7041 0.5021
vn 0.5893 0.5528 0.5893
vn 0.3958 -0.8286 0.3958
vn 0.6539 0.3805 0.6539
vn 0.2743 -0.9217 0.2743
vn 0.6937 0.1939 0.6937
vn 0.1421 -0.9796 0.1421
vn 0.7071 -0.0000 0.7071
vn 0.1421 0.9796 0.1421
vn 0.3110 -0.8286 0.4654
vn 0.2155 -0.9217 0.3225
vn 0.5138 0.3805 0.7689
vn 0.5450 0.1939 0.8157
vn 0.1117 -0.9796 0.1671
vn 0.5556 -0.0000 0.8315
vn 0.1117 0.9796 0.1671
vn 0.5450 -0.1939 0.8157
vn 0.2155 0.9217 0.3225
vn 0.5138 -0.3805 0.7689
vn 0.3110 0.8286 0.4654
vn 0.4630 -0.5528 0.6929
vn 0.3945 0.7041 0.5905
vn 0.3945 -0.7041 0.5905
vn 0.4630 0.5528 0.6929
vn 0.1484 0.9217 0.3584
vn 0.2142 0.8286 0.5172
vn 0.3539 -0.3805 0.8544
vn 0.3189 -0.5528 0.7699
vn 0.2718 0.7041 0.6561
vn 0.2718 -0.7041 0.6561
vn 0.3189 0.5528 0.7699
vn 0.2142 -0.8286 0.5172
vn 0.3539 0.3805 0.8544
vn 0.1484 -0.9217 0.3584
vn 0.3754 0.1939 0.9063
vn 0.0769 -0.9796 0.1857
vn 0.3827 -0.0000 0.9239
vn 0.0769 0.9796 0.1857
vn 0.3754 -0.1939 0.9063
vn 0.1804 0.3805 0.9070
vn 0.1914 0.1939 0.9622
vn 0.0757 -0.9217 0.3804
vn 0.0392 -0.9796 0.1971
vn 0.1951 -0.0000 0.9808
vn 0.0392 0.9796 0.1971
vn 0.1914 -0.1939 0.9622
vn 0.0757 0.9217 0.3804
vn 0.1804 -0.3805 0.9070
vn 0.1092 0.8286 0.5490
vn 0.1626 -0.5528 0.8173
vn 0.1385 0.7041 0.6965
vn 0.1385 -0.7041 0.6965
vn 0.1626 0.5528 0.8173
vn 0.1092 -0.8286 0.5490
vn -0.0000 -0.3805 0.9248
vn -0.0000 -0.5528 0.8333
vn -0.0000 0.8286 0.5598
vn -0.0000 0.7041 0.7101
vn -0.0000 -0.7041 0.7101
vn -0.0000 0.5528 0.8333
vn -0.0000 -0.8286 0.5598
vn -0.0000 0.3805 0.9248
vn -0.0000 -0.9217 0.3879
vn -0.0000 0.1939 0.9810
vn -0.0000 -0.9796 0.2010
vn -0.0000 -0.0000 1.0000
vn -0.0000 0.9796 0.2010
vn -0.0000 -0.1939 0.9810
vn -0.0000 0.9217 0.3879
vn -0.0757 -0.9217 0.3804
vn -0.0392 -0.9796 0.1971
vn -0.1914 0.1939 0.9622
vn -0.1951 -0.0000 0.9808
vn -0.0392 0.9796 0.1971
vn -0.1914 -0.1939 0.9622
vn -0.0757 0.9217 0.3804
vn -0.1804 -0.3805 0.9070
vn -0.1092 0.8286 0.5490
vn -0.1626 -0.5528 0.8173
vn -0.1385 0.7041 0.6965
vn -0.1385 -0.7041 0.6965
vn -0.1626 0.5528 0.8173
vn -0.1092 -0.8286 0.5490
vn -0.1804 0.3805 0.9070
vn -0.3189 -0.5528 0.7699
vn -0.2718 -0.7041 0.6561
vn -0.2718 0.7041 0.6561
vn -0.3189 0.5528 0.7699
vn -0.2142 -0.8286 0.5172
vn -0.3539 0.3805 0.8544
vn -0.1484 -0.9217 0.3584
vn -0.3754 0.1939 0.9063
vn -0.0769 -0.9796 0.1857
vn -0.3827 -0.0000 0.9239
vn -0.0769 0.9796 0.1857
vn -0.3754 -0.1939 0.9063
vn -0.1484 0.9217 0.3584
vn -0.3539 -0.3805 0.8544
vn -0.2142 0.8286 0.5172
vn -0.1117 0.9796 0.1671
vn -0.1117 -0.9796 0.1671
vn -0.5556 -0.0000 0.8315
vn -0.5450 -0.1939 0.8157
vn -0.2155 0.9217 0.3225
vn -0.5138 -0.3805 0.7689
vn -0.3110 0.8286 0.4654
vn -0.4630 -0.5528 0.6929
vn -0.3945 0.7041 0.5905
vn -0.3945 -0.7041 0.5905
vn -0.4630 0.5528 0.6929
vn -0.3110 -0.8286 0.4654
vn -0.5138 0.3805 0.7689
vn -0.2155 -0.9217 0.3225
vn -0.5450 0.1939 0.8157
vn -0.5021 0.7041 0.5021
vn -0.5893 0.5528 0.5893
vn -0.5021 -0.7041 0.5021
vn -0.3958 -0.8286 0.3958
vn -0.6539 0.3805 0.6539
vn -0.2743 -0.9217 0.2743
vn -0.6937 0.1939 0.6937
vn -0.1421 -0.9796 0.1421
vn -0.7071 -0.0000 0.7071
vn -0.1421 0.9796 0.1421
vn -0.6937 -0.1939 0.6937
vn -0.2743 0.9217 0.2743
vn -0.6539 -0.3805 0.6539
vn -0.3958 0.8286 0.3958
vn -0.5893 -0.5528 0.5893
vn -0.8315 -0.0000 0.5556
vn -0.8157 -0.1939 0.5450
vn -0.1671 0.9796 0.1117
vn -0.3225 0.9217 0.2155
vn -0.7689 -0.3805 0.5138
vn -0.4654 0.8286 0.3110
vn -0.6929 -0.5528 0.4630
vn -0.5905 0.7041 0.3945
vn -0.5905 -0.7041 0.3945
vn -0.6929 0.5528 0.4630
vn -0.4654 -0.8286 0.3110
vn -0.7689 0.3805 0.5138
vn -0.3225 -0.9217 0.2155
vn -0.8157 0.1939 0.5450
vn -0.1671 -0.9796 0.1117
vn -0.6561 -0.7041 0.2718
vn -0.5172 -0.8286 0.2142
vn -0.7699 0.5528 0.3189
vn -0.8544 0.3805 0.3539
vn -0.3584 -0.9217 0.1484
vn -0.9063 0.1939 0.3754
vn -0.1857 -0.9796 0.0769
vn -0.9239 -0.0000 0.3827
vn -0.1857 0.9796 0.0769
vn -0.9063 -0.1939 0.3754
vn -0.3584 0.9217 0.1484
vn -0.8544 -0.3805 0.3539
vn -0.5172 0.8286 0.2142
vn -0.7699 -0.5528 0.3189
vn -0.6561 0.7041 0.2718
vn -0.1971 0.9796 0.0392
vn -0.3804 0.9217 0.0757
vn -0.9622 -0.1939 0.1914
vn -0.9070 -0.3805 0.1804
vn -0.5490 0.8286 0.1092
vn -0.8173 -0.5528 0.1626
vn -0.6965 0.7041 0.1385
vn -0.6965 -0.7041 0.1385
vn -0.8173 0.5528 0.1626
vn -0.5490 -0.8286 0.1092
vn -0.9070 0.3805 0.1804
vn -0.3804 -0.9217 0.0757
vn -0.9622 0.1939 0.1914
vn -0.1971 -0.9796 0.0392
vn -0.9808 -0.0000 0.1951
vn -0.8333 0.5528 -0.0000
vn -0.9248 0.3805 -0.0000
vn -0.5598 -0.8286 -0.0000
vn -0.3879 -0.9217 -0.0000
vn -0.9810 0.1939 -0.0000
vn -0.2010 -0.9796 -0.0000
vn -1.0000 -0.0000 -0.0000
vn -0.2010 0.9796 -0.0000
vn -0.9810 -0.1939 -0.0000
vn -0.3879 0.9217 -0.0000
vn -0.9248 -0.3805 -0.0000
vn -0.5598 0.8286 -0.0000
vn -0.8333 -0.5528 -0.0000
vn -0.7101 0.7041 -0.0000
vn -0.7101 -0.7041 -0.0000
vn -0.9622 -0.1939 -0.1914
vn -0.9070 -0.3805 -0.1804
vn -0.3804 0.9217 -0.0757
vn -0.5490 0.8286 -0.1092
vn -0.8173 -0.5528 -0.1626
vn -0.6965 0.7041 -0.1385
vn -0.6965 -0.7041 -0.1385
vn -0.8173 0.5528 -0.1626
vn -0.5490 -0.8286 -0.1092
vn -0.9070 0.3805 -0.1804
vn -0.3804 -0.9217 -0.0757
vn -0.9622 0.1939 -0.1914
vn -0.1971 -0.9796 -0.0392
vn -0.9808 -0.0000 -0.1951
vn -0.1971 0.9796 -0.0392
vn -0.5172 -0.8286 -0.2142
vn -0.3584 -0.9217 -0.1484
vn -0.8544 0.3805 -0.3539
vn -0.9063 0.1939 -0.3754
vn -0.1857 -0.9796 -0.0769
vn -0.9239 -0.0000 -0.3827
vn -0.1857 0.9796 -0.0769
vn -0.9063 -0.1939 -0.3754
vn -0.3584 0.9217 -0.1484
vn -0.8544 -0.3805 -0.3539
vn -0.5172 0.8286 -0.2142
vn -0.7699 -0.5528 -0.3189
vn -0.6561 0.7041 -0.2718
vn -0.6561 -0.7041 -0.2718
vn -0.7699 0.5528 -0.3189
vn -0.7689 -0.3805 -0.5138
vn -0.6929 -0.5528 -0.4630
vn -0.4654 0.8286 -0.3110
vn -0.5905 0.7041 -0.3945
vn -0.5905 -0.7041 -0.3945
vn -0.6929 0.5528 -0.4630
vn -0.4654 -0.8286 -0.3110
vn -0.7689 0.3805 -0.5138
vn -0.3225 -0.9217 -0.2155
vn -0.8157 0.1939 -0.5450
vn -0.1671 -0.9796 -0.1117
vn -0.8315 -0.0000 -0.5556
vn -0.1671 0.9796 -0.1117
vn -0.8157 -0.1939 -0.5450
vn -0.3225 0.9217 -0.2155
vn -0.2743 -0.9217 -0.2743
vn -0.1421 -0.9796 -0.1421
vn -0.6937 0.1939 -0.6937
vn -0.7071 -0.0000 -0.7071
vn -0.1421 0.9796 -0.1421
vn -0.6937 -0.1939 -0.6937
vn -0.2743 0.9217 -0.2743
vn -0.6539 -0.3805 -0.6539
vn -0.3958 0.8286 -0.3958
vn -0.5893 -0.5528 -0.5893
vn -0.5021 0.7041 -0.5021
vn -0.5021 -0.7041 -0.5021
vn -0.5893 0.5528 -0.5893
vn -0.3958 -0.8286 -0.3958
vn -0.6539 0.3805 -0.6539
vn -0.3110 0.8286 -0.4654
vn -0.3945 0.7041 -0.5905
vn -0.4630 -0.5528 -0.6929
vn -0.3945 -0.7041 -0.5905
vn -0.4630 0.5528 -0.6929
vn -0.3110 -0.8286 -0.4654
vn -0.5138 0.3805 -0.7689
vn -0.2155 -0.9217 -0.3225
vn -0.5450 0.1939 -0.8157
vn -0.1117 -0.9796 -0.1671
vn -0.5556 -0.0000 -0.8315
vn -0.1117 0.9796 -0.1671
vn -0.5450 -0.1939 -0.8157
vn -0.2155 0.9217 -0.3225
vn -0.5138 -0.3805 -0.7689
vn -0.3754 0.1939 -0.9063
vn -0.3827 -0.0000 -0.9239
vn -0.0769 0.9796 -0.1857
vn -0.0769 -0.9796 -0.1857
vn -0.3754 -0.1939 -0.9063
vn -0.1484 0.9217 -0.3584
vn -0.3539 -0.3805 -0.8544
vn -0.2142 0.8286 -0.5172
vn -0.3189 -0.5528 -0.7699
vn -0.2718 0.7041 -0.6561
vn -0.2718 -0.7041 -0.6561
vn -0.3189 0.5528 -0.7699
vn -0.2142 -0.8286 -0.5172
vn -0.3539 0.3805 -0.8544
vn -0.1484 -0.9217 -0.3584
vn -0.1626 -0.5528 -0.8173
vn -0.1385 -0.7041 -0.6965
vn -0.1385 0.7041 -0.6965
vn -0.1626 0.5528 -0.8173
vn -0.1092 -0.8286 -0.5490
vn -0.1804 0.3805 -0.9070
vn -0.0757 -0.9217 -0.3804
vn -0.1914 0.1939 -0.9622
vn -0.0392 -0.9796 -0.1971
vn -0.1951 -0.0000 -0.9808
vn -0.0392 0.9796 -0.1971
vn -0.1914 -0.1939 -0.9622
vn -0.0757 0.9217 -0.3804
vn -0.1804 -0.3805 -0.9070
vn -0.1092 0.8286 -0.5490
vt 0.750000 0.500000
vt 0.750000 0.562500
vt 0.718750 0.562500
vt 0.718750 0.500000
vt 0.750000 0.937500
vt 0.734375 1.000000
vt 0.718750 0.937500
vt 0.734375 0.000000
vt 0.750000 0.062500
vt 0.718750 0.062500
vt 0.750000 0.437500
vt 0.718750 0.437500
vt 0.750000 0.875000
vt 0.718750 0.875000
vt 0.750000 0.375000
vt 0.718750 0.375000
vt 0.750000 0.812500
vt 0.718750 0.812500
vt 0.750000 0.312500
vt 0.718750 0.312500
vt 0.750000 0.750000
vt 0.718750 0.750000
vt 0.750000 0.250000
vt 0.718750 0.250000
vt 0.750000 0.687500
vt 0.718750 0.687500
vt 0.750000 0.187500
vt 0.718750 0.187500
vt 0.750000 0.625000
vt 0.718750 0.625000
vt 0.750000 0.125000
vt 0.718750 0.125000
vt 0.687500 0.625000
vt 0.687500 0.562500
vt 0.687500 0.125000
vt 0.687500 0.062500
vt 0.687500 0.500000
vt 0.703125 1.000000
vt 0.687500 0.937500
vt 0.703125 0.000000
vt 0.687500 0.437500
vt 0.687500 0.875000
vt 0.687500 0.375000
vt 0.687500 0.812500
vt 0.687500 0.312500
vt 0.687500 0.750000
vt 0.687500 0.250000
vt 0.687500 0.687500
vt 0.687500 0.187500
vt 0.656250 0.375000
vt 0.656250 0.312500
vt 0.656250 0.812500
vt 0.656250 0.750000
vt 0.656250 0.250000
vt 0.656250 0.687500
vt 0.656250 0.187500
vt 0.656250 0.625000
vt 0.656250 0.125000
vt 0.656250 0.562500
vt 0.656250 0.062500
vt 0.656250 0.500000
vt 0.671875 1.000000
vt 0.656250 0.937500
vt 0.671875 0.000000
vt 0.656250 0.437500
vt 0.656250 0.875000
vt 0.625000 0.125000
vt 0.625000 0.062500
vt 0.625000 0.562500
vt 0.625000 0.500000
vt 0.640625 1.000000
vt 0.625000 0.937500
vt 0.640625 0.000000
vt 0.625000 0.437500
vt 0.625000 0.875000
vt 0.625000 0.375000
vt 0.625000 0.812500
vt 0.625000 0.312500
vt 0.625000 0.750000
vt 0.625000 0.250000
vt 0.625000 0.687500
vt 0.625000 0.187500
vt 0.625000 0.625000
vt 0.593750 0.812500
vt 0.593750 0.750000
vt 0.593750 0.312500
vt 0.593750 0.250000
vt 0.593750 0.687500
vt 0.593750 0.187500
vt 0.593750 0.625000
vt 0.593750 0.125000
vt 0.593750 0.562500
vt 0.593750 0.062500
vt 0.593750 0.500000
vt 0.609375 1.000000
vt 0.593750 0.937500
vt 0.609375 0.000000
vt 0.593750 0.437500
vt 0.593750 0.875000
vt 0.593750 0.375000
vt 0.562500 0.562500
vt 0.562500 0.500000
vt 0.578125 1.000000
vt 0.562500 0.937500
vt 0.578125 0.000000
vt 0.562500 0.062500
vt 0.562500 0.437500
vt 0.562500 0.875000
vt 0.562500 0.375000
vt 0.562500 0.812500
vt 0.562500 0.312500
vt 0.562500 0.750000
vt 0.562500 0.250000
vt 0.562500 0.687500
vt 0.562500 0.187500
vt 0.562500 0.625000
vt 0.562500 0.125000
vt 0.531250 0.312500
vt 0.531250 0.250000
vt 0.531250 0.750000
vt 0.531250 0.687500
vt 0.531250 0.187500
vt 0.531250 0.625000
vt 0.531250 0.125000
vt 0.531250 0.562500
vt 0.531250 0.062500
vt 0.531250 0.500000
vt 0.546875 1.000000
vt 0.531250 0.937500
vt 0.546875 0.000000
vt 0.531250 0.437500
vt 0.531250 0.875000
vt 0.531250 0.375000
vt 0.531250 0.812500
vt 0.515625 0.000000
vt 0.500000 0.062500
vt 0.500000 0.500000
vt 0.500000 0.437500
vt 0.500000 0.937500
vt 0.500000 0.875000
vt 0.500000 0.375000
vt 0.500000 0.812500
vt 0.500000 0.312500
vt 0.500000 0.750000
vt 0.500000 0.250000
vt 0.500000 0.687500
vt 0.500000 0.187500
vt 0.500000 0.625000
vt 0.500000 0.125000
vt 0.500000 0.562500
vt 0.515625 1.000000
vt 0.468750 0.250000
vt 0.468750 0.187500
vt 0.468750 0.687500
vt 0.468750 0.625000
vt 0.468750 0.125000
vt 0.468750 0.562500
vt 0.468750 0.062500
vt 0.468750 0.500000
vt 0.484375 1.000000
vt 0.468750 0.937500
vt 0.484375 0.000000
vt 0.468750 0.437500
vt 0.468750 0.875000
vt 0.468750 0.375000
vt 0.468750 0.812500
vt 0.468750 0.312500
vt 0.468750 0.750000
vt 0.437500 0.937500
vt 0.437500 0.875000
vt 0.437500 0.437500
vt 0.437500 0.375000
vt 0.437500 0.812500
vt 0.437500 0.312500
vt 0.437500 0.750000
vt 0.437500 0.250000
vt 0.437500 0.687500
vt 0.437500 0.187500
vt 0.437500 0.625000
vt 0.437500 0.125000
vt 0.437500 0.562500
vt 0.437500 0.062500
vt 0.437500 0.500000
vt 0.453125 1.000000
vt 0.453125 0.000000
vt 0.406250 0.687500
vt 0.406250 0.625000
vt 0.406250 0.187500
vt 0.406250 0.125000
vt 0.406250 0.562500
vt 0.406250 0.062500
vt 0.406250 0.500000
vt 0.421875 1.000000
vt 0.406250 0.937500
vt 0.421875 0.000000
vt 0.406250 0.437500
vt 0.406250 0.875000
vt 0.406250 0.375000
vt 0.406250 0.812500
vt 0.406250 0.312500
vt 0.406250 0.750000
vt 0.406250 0.250000
vt 0.375000 0.437500
vt 0.375000 0.375000
vt 0.375000 0.875000
vt 0.375000 0.812500
vt 0.375000 0.312500
vt 0.375000 0.750000
vt 0.375000 0.250000
vt 0.375000 0.687500
vt 0.375000 0.187500
vt 0.375000 0.625000
vt 0.375000 0.125000
vt 0.375000 0.562500
vt 0.375000 0.062500
vt 0.375000 0.500000
vt 0.390625 1.000000
vt 0.375000 0.937500
vt 0.390625 0.000000
vt 0.343750 0.187500
vt 0.343750 0.125000
vt 0.343750 0.625000
vt 0.343750 0.562500
vt 0.343750 0.062500
vt 0.343750 0.500000
vt 0.359375 1.000000
vt 0.343750 0.937500
vt 0.359375 0.000000
vt 0.343750 0.437500
vt 0.343750 0.875000
vt 0.343750 0.375000
vt 0.343750 0.812500
vt 0.343750 0.312500
vt 0.343750 0.750000
vt 0.343750 0.250000
vt 0.343750 0.687500
vt 0.312500 0.875000
vt 0.312500 0.812500
vt 0.312500 0.375000
vt 0.312500 0.312500
vt 0.312500 0.750000
vt 0.312500 0.250000
vt 0.312500 0.687500
vt 0.312500 0.187500
vt 0.312500 0.625000
vt 0.312500 0.125000
vt 0.312500 0.562500
vt 0.312500 0.062500
vt 0.312500 0.500000
vt 0.328125 1.000000
vt 0.312500 0.937500
vt 0.328125 0.000000
vt 0.312500 0.437500
vt 0.281250 0.625000
vt 0.281250 0.562500
vt 0.281250 0.125000
vt 0.281250 0.062500
vt 0.281250 0.500000
vt 0.296875 1.000000
vt 0.281250 0.937500
vt 0.296875 0.000000
vt 0.281250 0.437500
vt 0.281250 0.875000
vt 0.281250 0.375000
vt 0.281250 0.812500
vt 0.281250 0.312500
vt 0.281250 0.750000
vt 0.281250 0.250000
vt 0.281250 0.687500
vt 0.281250 0.187500
vt 0.250000 0.375000
vt 0.250000 0.312500
vt 0.250000 0.812500
vt 0.250000 0.750000
vt 0.250000 0.250000
vt 0.250000 0.687500
vt 0.250000 0.187500
vt 0.250000 0.625000
vt 0.250000 0.125000
vt 0.250000 0.562500
vt 0.250000 0.062500
vt 0.250000 0.500000
vt 0.265625 1.000000
vt 0.250000 0.937500
vt 0.265625 0.000000
vt 0.250000 0.437500
vt 0.250000 0.875000
vt 0.218750 0.125000
vt 0.218750 0.062500
vt 0.218750 0.562500
vt 0.218750 0.500000
vt 0.234375 1.000000
vt 0.218750 0.937500
vt 0.234375 0.000000
vt 0.218750 0.437500
vt 0.218750 0.875000
vt 0.218750 0.375000
vt 0.218750 0.812500
vt 0.218750 0.312500
vt 0.218750 0.750000
vt 0.218750 0.250000
vt 0.218750 0.687500
vt 0.218750 0.187500
vt 0.218750 0.625000
vt 0.187500 0.312500
vt 0.187500 0.250000
vt 0.187500 0.750000
vt 0.187500 0.687500
vt 0.187500 0.187500
vt 0.187500 0.625000
vt 0.187500 0.125000
vt 0.187500 0.562500
vt 0.187500 0.062500
vt 0.187500 0.500000
vt 0.203125 1.000000
vt 0.187500 0.937500
vt 0.203125 0.000000
vt 0.187500 0.437500
vt 0.187500 0.875000
vt 0.187500 0.375000
vt 0.187500 0.812500
vt 0.171875 1.000000
vt 0.156250 0.937500
vt 0.171875 0.000000
vt 0.156250 0.062500
vt 0.156250 0.500000
vt 0.156250 0.437500
vt 0.156250 0.875000
vt 0.156250 0.375000
vt 0.156250 0.812500
vt 0.156250 0.312500
vt 0.156250 0.750000
vt 0.156250 0.250000
vt 0.156250 0.687500
vt 0.156250 0.187500
vt 0.156250 0.625000
vt 0.156250 0.125000
vt 0.156250 0.562500
vt 0.125000 0.750000
vt 0.125000 0.687500
vt 0.125000 0.250000
vt 0.125000 0.187500
vt 0.125000 0.625000
vt 0.125000 0.125000
vt 0.125000 0.562500
vt 0.125000 0.062500
vt 0.125000 0.500000
vt 0.140625 1.000000
vt 0.125000 0.937500
vt 0.140625 0.000000
vt 0.125000 0.437500
vt 0.125000 0.875000
vt 0.125000 0.375000
vt 0.125000 0.812500
vt 0.125000 0.312500
vt 0.093750 0.500000
vt 0.093750 0.437500
vt 0.093750 0.937500
vt 0.093750 0.875000
vt 0.093750 0.375000
vt 0.093750 0.812500
vt 0.093750 0.312500
vt 0.093750 0.750000
vt 0.093750 0.250000
vt 0.093750 0.687500
vt 0.093750 0.187500
vt 0.093750 0.625000
vt 0.093750 0.125000
vt 0.093750 0.562500
vt 0.093750 0.062500
vt 0.109375 1.000000
vt 0.109375 0.000000
vt 0.062500 0.250000
vt 0.062500 0.187500
vt 0.062500 0.687500
vt 0.062500 0.625000
vt 0.062500 0.125000
vt 0.062500 0.562500
vt 0.062500 0.062500
vt 0.062500 0.500000
vt 0.078125 1.000000
vt 0.062500 0.937500
vt 0.078125 0.000000
vt 0.062500 0.437500
vt 0.062500 0.875000
vt 0.062500 0.375000
vt 0.062500 0.812500
vt 0.062500 0.312500
vt 0.062500 0.750000
vt 0.031250 0.937500
vt 0.031250 0.875000
vt 0.031250 0.437500
vt 0.031250 0.375000
vt 0.031250 0.812500
vt 0.031250 0.312500
vt 0.031250 0.750000
vt 0.031250 0.250000
vt 0.031250 0.687500
vt 0.031250 0.187500
vt 0.031250 0.625000
vt 0.031250 0.125000
vt 0.031250 0.562500
vt 0.031250 0.062500
vt 0.031250 0.500000
vt 0.046875 1.000000
vt 0.046875 0.000000
vt 0.000000 0.687500
vt 0.000000 0.625000
vt 0.000000 0.187500
vt 0.000000 0.125000
vt 0.000000 0.562500
vt 0.000000 0.062500
vt 0.000000 0.500000
vt 0.015625 1.000000
vt 0.000000 0.937500
vt 0.015625 0.000000
vt 0.000000 0.437500
vt 0.000000 0.875000
vt 0.000000 0.375000
vt 0.000000 0.812500
vt 0.000000 0.312500
vt 0.000000 0.750000
vt 0.000000 0.250000
vt 1.000000 0.375000
vt 1.000000 0.437500
vt 0.968750 0.437500
vt 0.968750 0.375000
vt 1.000000 0.812500
vt 1.000000 0.875000
vt 0.968750 0.875000
vt 0.968750 0.812500
vt 1.000000 0.312500
vt 0.968750 0.312500
vt 1.000000 0.750000
vt 0.968750 0.750000
vt 1.000000 0.250000
vt 0.968750 0.250000
vt 1.000000 0.687500
vt 0.968750 0.687500
vt 1.000000 0.187500
vt 0.968750 0.187500
vt 1.000000 0.625000
vt 0.968750 0.625000
vt 1.000000 0.125000
vt 0.968750 0.125000
vt 1.000000 0.562500
vt 0.968750 0.562500
vt 1.000000 0.062500
vt 0.968750 0.062500
vt 1.000000 0.500000
vt 0.968750 0.500000
vt 1.000000 0.937500
vt 0.984375 1.000000
vt 0.968750 0.937500
vt 0.984375 0.000000
vt 0.937500 0.187500
vt 0.937500 0.125000
vt 0.937500 0.625000
vt 0.937500 0.562500
vt 0.937500 0.062500
vt 0.937500 0.500000
vt 0.953125 1.000000
vt 0.937500 0.937500
vt 0.953125 0.000000
vt 0.937500 0.437500
vt 0.937500 0.875000
vt 0.937500 0.375000
vt 0.937500 0.812500
vt 0.937500 0.312500
vt 0.937500 0.750000
vt 0.937500 0.250000
vt 0.937500 0.687500
vt 0.906250 0.375000
vt 0.906250 0.312500
vt 0.906250 0.812500
vt 0.906250 0.750000
vt 0.906250 0.250000
vt 0.906250 0.687500
vt 0.906250 0.187500
vt 0.906250 0.625000
vt 0.906250 0.125000
vt 0.906250 0.562500
vt 0.906250 0.062500
vt 0.906250 0.500000
vt 0.921875 1.000000
vt 0.906250 0.937500
vt 0.921875 0.000000
vt 0.906250 0.437500
vt 0.906250 0.875000
vt 0.875000 0.125000
vt 0.875000 0.062500
vt 0.875000 0.562500
vt 0.875000 0.500000
vt 0.890625 1.000000
vt 0.875000 0.937500
vt 0.890625 0.000000
vt 0.875000 0.437500
vt 0.875000 0.875000
vt 0.875000 0.375000
vt 0.875000 0.812500
vt 0.875000 0.312500
vt 0.875000 0.750000
vt 0.875000 0.250000
vt 0.875000 0.687500
vt 0.875000 0.187500
vt 0.875000 0.625000
vt 0.843750 0.812500
vt 0.843750 0.750000
vt 0.843750 0.312500
vt 0.843750 0.250000
vt 0.843750 0.687500
vt 0.843750 0.187500
vt 0.843750 0.625000
vt 0.843750 0.125000
vt 0.843750 0.562500
vt 0.843750 0.062500
vt 0.843750 0.500000
vt 0.859375 1.000000
vt 0.843750 0.937500
vt 0.859375 0.000000
vt 0.843750 0.437500
vt 0.843750 0.875000
vt 0.843750 0.375000
vt 0.812500 0.562500
vt 0.812500 0.500000
vt 0.828125 1.000000
vt 0.812500 0.937500
vt 0.828125 0.000000
vt 0.812500 0.062500
vt 0.812500 0.437500
vt 0.812500 0.875000
vt 0.812500 0.375000
vt 0.812500 0.812500
vt 0.812500 0.312500
vt 0.812500 0.750000
vt 0.812500 0.250000
vt 0.812500 0.687500
vt 0.812500 0.187500
vt 0.812500 0.625000
vt 0.812500 0.125000
vt 0.781250 0.312500
vt 0.781250 0.250000
vt 0.781250 0.750000
vt 0.781250 0.687500
vt 0.781250 0.187500
vt 0.781250 0.625000
vt 0.781250 0.125000
vt 0.781250 0.562500
vt 0.781250 0.062500
vt 0.781250 0.500000
vt 0.796875 1.000000
vt 0.781250 0.937500
vt 0.796875 0.000000
vt 0.781250 0.437500
vt 0.781250 0.875000
vt 0.781250 0.375000
vt 0.781250 0.812500
vt 0.765625 1.000000
vt 0.765625 0.000000
s 1
f 4/1/1 3/2/2 13/3/3 14/4/4
f 474/5/5 82/6/6 7/7/7
f 308/8/8 482/9/9 21/10/10
f 5/11/11 4/1/1 14/4/4 15/12/12
f 475/13/13 474/5/5 7/7/7 8/14/14
f 478/15/15 5/11/11 15/12/12 16/16/16
f 1/17/17 475/13/13 8/14/14 9/18/18
f 6/19/19 478/15/15 16/16/16 17/20/20
f 476/21/21 1/17/17 9/18/18 10/22/22
f 479/23/23 6/19/19 17/20/20 18/24/24
f 2/25/25 476/21/21 10/22/22 11/26/26
f 480/27/27 479/23/23 18/24/24 19/28/28
f 477/29/29 2/25/25 11/26/26 12/30/30
f 481/31/31 480/27/27 19/28/28 20/32/32
f 3/2/2 477/29/29 12/30/30 13/3/3
f 482/9/9 481/31/31 20/32/32 21/10/10
f 13/3/3 12/30/30 27/33/33 28/34/34
f 21/10/10 20/32/32 35/35/35 36/36/36
f 14/4/4 13/3/3 28/34/34 29/37/37
f 7/7/7 82/38/6 22/39/38
f 308/40/8 21/10/10 36/36/36
f 15/12/12 14/4/4 29/37/37 30/41/39
f 8/14/14 7/7/7 22/39/38 23/42/40
f 16/16/16 15/12/12 30/41/39 31/43/41
f 9/18/18 8/14/14 23/42/40 24/44/42
f 17/20/20 16/16/16 31/43/41 32/45/43
f 10/22/22 9/18/18 24/44/42 25/46/44
f 18/24/24 17/20/20 32/45/43 33/47/45
f 11/26/26 10/22/22 25/46/44 26/48/46
f 19/28/28 18/24/24 33/47/45 34/49/47
f 12/30/30 11/26/26 26/48/46 27/33/33
f 20/32/32 19/28/28 34/49/47 35/35/35
f 32/45/43 31/43/41 46/50/48 47/51/49
f 25/46/44 24/44/42 39/52/50 40/53/51
f 33/47/45 32/45/43 47/51/49 48/54/52
f 26/48/46 25/46/44 40/53/51 41/55/53
f 34/49/47 33/47/45 48/54/52 49/56/54
f 27/33/33 26/48/46 41/55/53 42/57/55
f 35/35/35 34/49/47 49/56/54 50/58/56
f 28/34/34 27/33/33 42/57/55 43/59/57
f 36/36/36 35/35/35 50/58/56 51/60/58
f 29/37/37 28/34/34 43/59/57 44/61/59
f 22/39/38 82/62/6 37/63/60
f 308/64/8 36/36/36 51/60/58
f 30/41/39 29/37/37 44/61/59 45/65/61
f 23/42/40 22/39/38 37/63/60 38/66/62
f 31/43/41 30/41/39 45/65/61 46/50/48
f 24/44/42 23/42/40 38/66/62 39/52/50
f 51/60/58 50/58/56 65/67/63 66/68/64
f 44/61/59 43/59/57 58/69/65 59/70/66
f 37/63/60 82/71/6 52/72/67
f 308/73/8 51/60/58 66/68/64
f 45/65/61 44/61/59 59/70/66 60/74/68
f 38/66/62 37/63/60 52/72/67 53/75/69
f 46/50/48 45/65/61 60/74/68 61/76/70
f 39/52/50 38/66/62 53/75/69 54/77/71
f 47/51/49 46/50/48 61/76/70 62/78/72
f 40/53/51 39/52/50 54/77/71 55/79/73
f 48/54/52 47/51/49 62/78/72 63/80/74
f 41/55/53 40/53/51 55/79/73 56/81/75
f 49/56/54 48/54/52 63/80/74 64/82/76
f 42/57/55 41/55/53 56/81/75 57/83/77
f 50/58/56 49/56/54 64/82/76 65/67/63
f 43/59/57 42/57/55 57/83/77 58/69/65
f 55/79/73 54/77/71 69/84/78 70/85/79
f 63/80/74 62/78/72 77/86/80 78/87/81
f 56/81/75 55/79/73 70/85/79 71/88/82
f 64/82/76 63/80/74 78/87/81 79/89/83
f 57/83/77 56/81/75 71/88/82 72/90/84
f 65/67/63 64/82/76 79/89/83 80/91/85
f 58/69/65 57/83/77 72/90/84 73/92/86
f 66/68/64 65/67/63 80/91/85 81/93/87
f 59/70/66 58/69/65 73/92/86 74/94/88
f 52/72/67 82/95/6 67/96/89
f 308/97/8 66/68/64 81/93/87
f 60/74/68 59/70/66 74/94/88 75/98/90
f 53/75/69 52/72/67 67/96/89 68/99/91
f 61/76/70 60/74/68 75/98/90 76/100/92
f 54/77/71 53/75/69 68/99/91 69/84/78
f 62/78/72 61/76/70 76/100/92 77/86/80
f 74/94/88 73/92/86 89/101/93 90/102/94
f 67/96/89 82/103/6 83/104/95
f 308/105/8 81/93/87 97/106/96
f 75/98/90 74/94/88 90/102/94 91/107/97
f 68/99/91 67/96/89 83/104/95 84/108/98
f 76/100/92 75/98/90 91/107/97 92/109/99
f 69/84/78 68/99/91 84/108/98 85/110/100
f 77/86/80 76/100/92 92/109/99 93/111/101
f 70/85/79 69/84/78 85/110/100 86/112/102
f 78/87/81 77/86/80 93/111/101 94/113/103
f 71/88/82 70/85/79 86/112/102 87/114/104
f 79/89/83 78/87/81 94/113/103 95/115/105
f 72/90/84 71/88/82 87/114/104 88/116/106
f 80/91/85 79/89/83 95/115/105 96/117/107
f 73/92/86 72/90/84 88/116/106 89/101/93
f 81/93/87 80/91/85 96/117/107 97/106/96
f 94/113/103 93/111/101 108/118/108 109/119/109
f 87/114/104 86/112/102 101/120/110 102/121/111
f 95/115/105 94/113/103 109/119/109 110/122/112
f 88/116/106 87/114/104 102/121/111 103/123/113
f 96/117/107 95/115/105 110/122/112 111/124/114
f 89/101/93 88/116/106 103/123/113 104/125/115
f 97/106/96 96/117/107 111/124/114 112/126/116
f 90/102/94 89/101/93 104/125/115 105/127/117
f 83/104/95 82/128/6 98/129/118
f 308/130/8 97/106/96 112/126/116
f 91/107/97 90/102/94 105/127/117 106/131/119
f 84/108/98 83/104/95 98/129/118 99/132/120
f 92/109/99 91/107/97 106/131/119 107/133/121
f 85/110/100 84/108/98 99/132/120 100/134/122
f 93/111/101 92/109/99 107/133/121 108/118/108
f 86/112/102 85/110/100 100/134/122 101/120/110
f 308/135/8 112/126/116 127/136/123
f 106/131/119 105/127/117 120/137/124 121/138/125
f 99/132/120 98/129/118 113/139/126 114/140/127
f 107/133/121 106/131/119 121/138/125 122/141/128
f 100/134/122 99/132/120 114/140/127 115/142/129
f 108/118/108 107/133/121 122/141/128 123/143/130
f 101/120/110 100/134/122 115/142/129 116/144/131
f 109/119/109 108/118/108 123/143/130 124/145/132
f 102/121/111 101/120/110 116/144/131 117/146/133
f 110/122/112 109/119/109 124/145/132 125/147/134
f 103/123/113 102/121/111 117/146/133 118/148/135
f 111/124/114 110/122/112 125/147/134 126/149/136
f 104/125/115 103/123/113 118/148/135 119/150/137
f 112/126/116 111/124/114 126/149/136 127/136/123
f 105/127/117 104/125/115 119/150/137 120/137/124
f 98/129/118 82/151/6 113/139/126
f 125/147/134 124/145/132 139/152/138 140/153/139
f 118/148/135 117/146/133 132/154/140 133/155/141
f 126/149/136 125/147/134 140/153/139 141/156/142
f 119/150/137 118/148/135 133/155/141 134/157/143
f 127/136/123 126/149/136 141/156/142 142/158/144
f 120/137/124 119/150/137 134/157/143 135/159/145
f 113/139/126 82/160/6 128/161/146
f 308/162/8 127/136/123 142/158/144
f 121/138/125 120/137/124 135/159/145 136/163/147
f 114/140/127 113/139/126 128/161/146 129/164/148
f 122/141/128 121/138/125 136/163/147 137/165/149
f 115/142/129 114/140/127 129/164/148 130/166/150
f 123/143/130 122/141/128 137/165/149 138/167/151
f 116/144/131 115/142/129 130/166/150 131/168/152
f 124/145/132 123/143/130 138/167/151 139/152/138
f 117/146/133 116/144/131 131/168/152 132/154/140
f 129/164/148 128/161/146 143/169/153 144/170/154
f 137/165/149 136/163/147 151/171/155 152/172/156
f 130/166/150 129/164/148 144/170/154 145/173/157
f 138/167/151 137/165/149 152/172/156 153/174/158
f 131/168/152 130/166/150 145/173/157 146/175/159
f 139/152/138 138/167/151 153/174/158 154/176/160
f 132/154/140 131/168/152 146/175/159 147/177/161
f 140/153/139 139/152/138 154/176/160 155/178/162
f 133/155/141 132/154/140 147/177/161 148/179/163
f 141/156/142 140/153/139 155/178/162 156/180/164
f 134/157/143 133/155/141 148/179/163 149/181/165
f 142/158/144 141/156/142 156/180/164 157/182/166
f 135/159/145 134/157/143 149/181/165 150/183/167
f 128/161/146 82/184/6 143/169/153
f 308/185/8 142/158/144 157/182/166
f 136/163/147 135/159/145 150/183/167 151/171/155
f 148/179/163 147/177/161 162/186/168 163/187/169
f 156/180/164 155/178/162 170/188/170 171/189/171
f 149/181/165 148/179/163 163/187/169 164/190/172
f 157/182/166 156/180/164 171/189/171 172/191/173
f 150/183/167 149/181/165 164/190/172 165/192/174
f 143/169/153 82/193/6 158/194/175
f 308/195/8 157/182/166 172/191/173
f 151/171/155 150/183/167 165/192/174 166/196/176
f 144/170/154 143/169/153 158/194/175 159/197/177
f 152/172/156 151/171/155 166/196/176 167/198/178
f 145/173/157 144/170/154 159/197/177 160/199/179
f 153/174/158 152/172/156 167/198/178 168/200/180
f 146/175/159 145/173/157 160/199/179 161/201/181
f 154/176/160 153/174/158 168/200/180 169/202/182
f 147/177/161 146/175/159 161/201/181 162/186/168
f 155/178/162 154/176/160 169/202/182 170/188/170
f 167/198/178 166/196/176 181/203/183 182/204/184
f 160/199/179 159/197/177 174/205/185 175/206/186
f 168/200/180 167/198/178 182/204/184 183/207/187
f 161/201/181 160/199/179 175/206/186 176/208/188
f 169/202/182 168/200/180 183/207/187 184/209/189
f 162/186/168 161/201/181 176/208/188 177/210/190
f 170/188/170 169/202/182 184/209/189 185/211/191
f 163/187/169 162/186/168 177/210/190 178/212/192
f 171/189/171 170/188/170 185/211/191 186/213/193
f 164/190/172 163/187/169 178/212/192 179/214/194
f 172/191/173 171/189/171 186/213/193 187/215/195
f 165/192/174 164/190/172 179/214/194 180/216/196
f 158/194/175 82/217/6 173/218/197
f 308/219/8 172/191/173 187/215/195
f 166/196/176 165/192/174 180/216/196 181/203/183
f 159/197/177 158/194/175 173/218/197 174/205/185
f 186/213/193 185/211/191 200/220/198 201/221/199
f 179/214/194 178/212/192 193/222/200 194/223/201
f 187/215/195 186/213/193 201/221/199 202/224/202
f 180/216/196 179/214/194 194/223/201 195/225/203
f 173/218/197 82/226/6 188/227/204
f 308/228/8 187/215/195 202/224/202
f 181/203/183 180/216/196 195/225/203 196/229/205
f 174/205/185 173/218/197 188/227/204 189/230/206
f 182/204/184 181/203/183 196/229/205 197/231/207
f 175/206/186 174/205/185 189/230/206 190/232/208
f 183/207/187 182/204/184 197/231/207 198/233/209
f 176/208/188 175/206/186 190/232/208 191/234/210
f 184/209/189 183/207/187 198/233/209 199/235/211
f 177/210/190 176/208/188 191/234/210 192/236/212
f 185/211/191 184/209/189 199/235/211 200/220/198
f 178/212/192 177/210/190 192/236/212 193/222/200
f 190/232/208 189/230/206 204/237/213 205/238/214
f 198/233/209 197/231/207 212/239/215 213/240/216
f 191/234/210 190/232/208 205/238/214 206/241/217
f 199/235/211 198/233/209 213/240/216 214/242/218
f 192/236/212 191/234/210 206/241/217 207/243/219
f 200/220/198 199/235/211 214/242/218 215/244/220
f 193/222/200 192/236/212 207/243/219 208/245/221
f 201/221/199 200/220/198 215/244/220 216/246/222
f 194/223/201 193/222/200 208/245/221 209/247/223
f 202/224/202 201/221/199 216/246/222 217/248/224
f 195/225/203 194/223/201 209/247/223 210/249/225
f 188/227/204 82/250/6 203/251/226
f 308/252/8 202/224/202 217/248/224
f 196/229/205 195/225/203 210/249/225 211/253/227
f 189/230/206 188/227/204 203/251/226 204/237/213
f 197/231/207 196/229/205 211/253/227 212/239/215
f 209/247/223 208/245/221 223/254/228 224/255/229
f 217/248/224 216/246/222 231/256/230 232/257/231
f 210/249/225 209/247/223 224/255/229 225/258/232
f 203/251/226 82/259/6 218/260/233
f 308/261/8 217/248/224 232/257/231
f 211/253/227 210/249/225 225/258/232 226/262/234
f 204/237/213 203/251/226 218/260/233 219/263/235
f 212/239/215 211/253/227 226/262/234 227/264/236
f 205/238/214 204/237/213 219/263/235 220/265/237
f 213/240/216 212/239/215 227/264/236 228/266/238
f 206/241/217 205/238/214 220/265/237 221/267/239
f 214/242/218 213/240/216 228/266/238 229/268/240
f 207/243/219 206/241/217 221/267/239 222/269/241
f 215/244/220 214/242/218 229/268/240 230/270/242
f 208/245/221 207/243/219 222/269/241 223/254/228
f 216/246/222 215/244/220 230/270/242 231/256/230
f 228/266/238 227/264/236 242/271/243 243/272/244
f 221/267/239 220/265/237 235/273/245 236/274/246
f 229/268/240 228/266/238 243/272/244 244/275/247
f 222/269/241 221/267/239 236/274/246 237/276/248
f 230/270/242 229/268/240 244/275/247 245/277/249
f 223/254/228 222/269/241 237/276/248 238/278/250
f 231/256/230 230/270/242 245/277/249 246/279/251
f 224/255/229 223/254/228 238/278/250 239/280/252
f 232/257/231 231/256/230 246/279/251 247/281/253
f 225/258/232 224/255/229 239/280/252 240/282/254
f 218/260/233 82/283/6 233/284/255
f 308/285/8 232/257/231 247/281/253
f 226/262/234 225/258/232 240/282/254 241/286/256
f 219/263/235 218/260/233 233/284/255 234/287/257
f 227/264/236 226/262/234 241/286/256 242/271/243
f 220/265/237 219/263/235 234/287/257 235/273/245
f 247/281/253 246/279/251 261/288/258 262/289/259
f 240/282/254 239/280/252 254/290/260 255/291/261
f 233/284/255 82/292/6 248/293/262
f 308/294/8 247/281/253 262/289/259
f 241/286/256 240/282/254 255/291/261 256/295/263
f 234/287/257 233/284/255 248/293/262 249/296/264
f 242/271/243 241/286/256 256/295/263 257/297/265
f 235/273/245 234/287/257 249/296/264 250/298/266
f 243/272/244 242/271/243 257/297/265 258/299/267
f 236/274/246 235/273/245 250/298/266 251/300/268
f 244/275/247 243/272/244 258/299/267 259/301/269
f 237/276/248 236/274/246 251/300/268 252/302/270
f 245/277/249 244/275/247 259/301/269 260/303/271
f 238/278/250 237/276/248 252/302/270 253/304/272
f 246/279/251 245/277/249 260/303/271 261/288/258
f 239/280/252 238/278/250 253/304/272 254/290/260
f 259/301/269 258/299/267 273/305/273 274/306/274
f 252/302/270 251/300/268 266/307/275 267/308/276
f 260/303/271 259/301/269 274/306/274 275/309/277
f 253/304/272 252/302/270 267/308/276 268/310/278
f 261/288/258 260/303/271 275/309/277 276/311/279
f 254/290/260 253/304/272 268/310/278 269/312/280
f 262/289/259 261/288/258 276/311/279 277/313/281
f 255/291/261 254/290/260 269/312/280 270/314/282
f 248/293/262 82/315/6 263/316/283
f 308/317/8 262/289/259 277/313/281
f 256/295/263 255/291/261 270/314/282 271/318/284
f 249/296/264 248/293/262 263/316/283 264/319/285
f 257/297/265 256/295/263 271/318/284 272/320/286
f 250/298/266 249/296/264 264/319/285 265/321/287
f 258/299/267 257/297/265 272/320/286 273/305/273
f 251/300/268 250/298/266 265/321/287 266/307/275
f 263/316/283 82/322/6 278/323/288
f 308/324/8 277/313/281 292/325/289
f 271/318/284 270/314/282 285/326/290 286/327/291
f 264/319/285 263/316/283 278/323/288 279/328/292
f 272/320/286 271/318/284 286/327/291 287/329/293
f 265/321/287 264/319/285 279/328/292 280/330/294
f 273/305/273 272/320/286 287/329/293 288/331/295
f 266/307/275 265/321/287 280/330/294 281/332/296
f 274/306/274 273/305/273 288/331/295 289/333/297
f 267/308/276 266/307/275 281/332/296 282/334/298
f 275/309/277 274/306/274 289/333/297 290/335/299
f 268/310/278 267/308/276 282/334/298 283/336/300
f 276/311/279 275/309/277 290/335/299 291/337/301
f 269/312/280 268/310/278 283/336/300 284/338/302
f 277/313/281 276/311/279 291/337/301 292/325/289
f 270/314/282 269/312/280 284/338/302 285/326/290
f 282/334/298 281/332/296 296/339/303 297/340/304
f 290/335/299 289/333/297 304/341/305 305/342/306
f 283/336/300 282/334/298 297/340/304 298/343/307
f 291/337/301 290/335/299 305/342/306 306/344/308
f 284/338/302 283/336/300 298/343/307 299/345/309
f 292/325/289 291/337/301 306/344/308 307/346/310
f 285/326/290 284/338/302 299/345/309 300/347/311
f 278/323/288 82/348/6 293/349/312
f 308/350/8 292/325/289 307/346/310
f 286/327/291 285/326/290 300/347/311 301/351/313
f 279/328/292 278/323/288 293/349/312 294/352/314
f 287/329/293 286/327/291 301/351/313 302/353/315
f 280/330/294 279/328/292 294/352/314 295/354/316
f 288/331/295 287/329/293 302/353/315 303/355/317
f 281/332/296 280/330/294 295/354/316 296/339/303
f 289/333/297 288/331/295 303/355/317 304/341/305
f 301/351/313 300/347/311 316/356/318 317/357/319
f 294/352/314 293/349/312 309/358/320 310/359/321
f 302/353/315 301/351/313 317/357/319 318/360/322
f 295/354/316 294/352/314 310/359/321 311/361/323
f 303/355/317 302/353/315 318/360/322 319/362/324
f 296/339/303 295/354/316 311/361/323 312/363/325
f 304/341/305 303/355/317 319/362/324 320/364/326
f 297/340/304 296/339/303 312/363/325 313/365/327
f 305/342/306 304/341/305 320/364/326 321/366/328
f 298/343/307 297/340/304 313/365/327 314/367/329
f 306/344/308 305/342/306 321/366/328 322/368/330
f 299/345/309 298/343/307 314/367/329 315/369/331
f 307/346/310 306/344/308 322/368/330 323/370/332
f 300/347/311 299/345/309 315/369/331 316/356/318
f 293/349/312 82/371/6 309/358/320
f 308/372/8 307/346/310 323/370/332
f 321/366/328 320/364/326 335/373/333 336/374/334
f 314/367/329 313/365/327 328/375/335 329/376/336
f 322/368/330 321/366/328 336/374/334 337/377/337
f 315/369/331 314/367/329 329/376/336 330/378/338
f 323/370/332 322/368/330 337/377/337 338/379/339
f 316/356/318 315/369/331 330/378/338 331/380/340
f 309/358/320 82/381/6 324/382/341
f 308/383/8 323/370/332 338/379/339
f 317/357/319 316/356/318 331/380/340 332/384/342
f 310/359/321 309/358/320 324/382/341 325/385/343
f 318/360/322 317/357/319 332/384/342 333/386/344
f 311/361/323 310/359/321 325/385/343 326/387/345
f 319/362/324 318/360/322 333/386/344 334/388/346
f 312/363/325 311/361/323 326/387/345 327/389/347
f 320/364/326 319/362/324 334/388/346 335/373/333
f 313/365/327 312/363/325 327/389/347 328/375/335
f 325/385/343 324/382/341 339/390/348 340/391/349
f 333/386/344 332/384/342 347/392/350 348/393/351
f 326/387/345 325/385/343 340/391/349 341/394/352
f 334/388/346 333/386/344 348/393/351 349/395/353
f 327/389/347 326/387/345 341/394/352 342/396/354
f 335/373/333 334/388/346 349/395/353 350/397/355
f 328/375/335 327/389/347 342/396/354 343/398/356
f 336/374/334 335/373/333 350/397/355 351/399/357
f 329/376/336 328/375/335 343/398/356 344/400/358
f 337/377/337 336/374/334 351/399/357 352/401/359
f 330/378/338 329/376/336 344/400/358 345/402/360
f 338/379/339 337/377/337 352/401/359 353/403/361
f 331/380/340 330/378/338 345/402/360 346/404/362
f 324/382/341 82/405/6 339/390/348
f 308/406/8 338/379/339 353/403/361
f 332/384/342 331/380/340 346/404/362 347/392/350
f 344/400/358 343/398/356 358/407/363 359/408/364
f 352/401/359 351/399/357 366/409/365 367/410/366
f 345/402/360 344/400/358 359/408/364 360/411/367
f 353/403/361 352/401/359 367/410/366 368/412/368
f 346/404/362 345/402/360 360/411/367 361/413/369
f 339/390/348 82/414/6 354/415/370
f 308/416/8 353/403/361 368/412/368
f 347/392/350 346/404/362 361/413/369 362/417/371
f 340/391/349 339/390/348 354/415/370 355/418/372
f 348/393/351 347/392/350 362/417/371 363/419/373
f 341/394/352 340/391/349 355/418/372 356/420/374
f 349/395/353 348/393/351 363/419/373 364/421/375
f 342/396/354 341/394/352 356/420/374 357/422/376
f 350/397/355 349/395/353 364/421/375 365/423/377
f 343/398/356 342/396/354 357/422/376 358/407/363
f 351/399/357 350/397/355 365/423/377 366/409/365
f 363/424/373 362/425/371 377/426/378 378/427/379
f 356/428/374 355/429/372 370/430/380 371/431/381
f 364/432/375 363/424/373 378/427/379 379/433/382
f 357/434/376 356/428/374 371/431/381 372/435/383
f 365/436/377 364/432/375 379/433/382 380/437/384
f 358/438/363 357/434/376 372/435/383 373/439/385
f 366/440/365 365/436/377 380/437/384 381/441/386
f 359/442/364 358/438/363 373/439/385 374/443/387
f 367/444/366 366/440/365 381/441/386 382/445/388
f 360/446/367 359/442/364 374/443/387 375/447/389
f 368/448/368 367/444/366 382/445/388 383/449/390
f 361/450/369 360/446/367 375/447/389 376/451/391
f 354/452/370 82/453/6 369/454/392
f 308/455/8 368/448/368 383/449/390
f 362/425/371 361/450/369 376/451/391 377/426/378
f 355/429/372 354/452/370 369/454/392 370/430/380
f 382/445/388 381/441/386 396/456/393 397/457/394
f 375/447/389 374/443/387 389/458/395 390/459/396
f 383/449/390 382/445/388 397/457/394 398/460/397
f 376/451/391 375/447/389 390/459/396 391/461/398
f 369/454/392 82/462/6 384/463/399
f 308/464/8 383/449/390 398/460/397
f 377/426/378 376/451/391 391/461/398 392/465/400
f 370/430/380 369/454/392 384/463/399 385/466/401
f 378/427/379 377/426/378 392/465/400 393/467/402
f 371/431/381 370/430/380 385/466/401 386/468/403
f 379/433/382 378/427/379 393/467/402 394/469/404
f 372/435/383 371/431/381 386/468/403 387/470/405
f 380/437/384 379/433/382 394/469/404 395/471/406
f 373/439/385 372/435/383 387/470/405 388/472/407
f 381/441/386 380/437/384 395/471/406 396/456/393
f 374/443/387 373/439/385 388/472/407 389/458/395
f 394/469/404 393/467/402 408/473/408 409/474/409
f 387/470/405 386/468/403 401/475/410 402/476/411
f 395/471/406 394/469/404 409/474/409 410/477/412
f 388/472/407 387/470/405 402/476/411 403/478/413
f 396/456/393 395/471/406 410/477/412 411/479/414
f 389/458/395 388/472/407 403/478/413 404/480/415
f 397/457/394 396/456/393 411/479/414 412/481/416
f 390/459/396 389/458/395 404/480/415 405/482/417
f 398/460/397 397/457/394 412/481/416 413/483/418
f 391/461/398 390/459/396 405/482/417 406/484/419
f 384/463/399 82/485/6 399/486/420
f 308/487/8 398/460/397 413/483/418
f 392/465/400 391/461/398 406/484/419 407/488/421
f 385/466/401 384/463/399 399/486/420 400/489/422
f 393/467/402 392/465/400 407/488/421 408/473/408
f 386/468/403 385/466/401 400/489/422 401/475/410
f 413/483/418 412/481/416 427/490/423 428/491/424
f 406/484/419 405/482/417 420/492/425 421/493/426
f 399/486/420 82/494/6 414/495/427
f 308/496/8 413/483/418 428/491/424
f 407/488/421 406/484/419 421/493/426 422/497/428
f 400/489/422 399/486/420 414/495/427 415/498/429
f 408/473/408 407/488/421 422/497/428 423/499/430
f 401/475/410 400/489/422 415/498/429 416/500/431
f 409/474/409 408/473/408 423/499/430 424/501/432
f 402/476/411 401/475/410 416/500/431 417/502/433
f 410/477/412 409/474/409 424/501/432 425/503/434
f 403/478/413 402/476/411 417/502/433 418/504/435
f 411/479/414 410/477/412 425/503/434 426/505/436
f 404/480/415 403/478/413 418/504/435 419/506/437
f 412/481/416 411/479/414 426/505/436 427/490/423
f 405/482/417 404/480/415 419/506/437 420/492/425
f 417/502/433 416/500/431 431/507/438 432/508/439
f 425/503/434 424/501/432 439/509/440 440/510/441
f 418/504/435 417/502/433 432/508/439 433/511/442
f 426/505/436 425/503/434 440/510/441 441/512/443
f 419/506/437 418/504/435 433/511/442 434/513/444
f 427/490/423 426/505/436 441/512/443 442/514/445
f 420/492/425 419/506/437 434/513/444 435/515/446
f 428/491/424 427/490/423 442/514/445 443/516/447
f 421/493/426 420/492/425 435/515/446 436/517/448
f 414/495/427 82/518/6 429/519/449
f 308/520/8 428/491/424 443/516/447
f 422/497/428 421/493/426 436/517/448 437/521/450
f 415/498/429 414/495/427 429/519/449 430/522/451
f 423/499/430 422/497/428 437/521/450 438/523/452
f 416/500/431 415/498/429 430/522/451 431/507/438
f 424/501/432 423/499/430 438/523/452 439/509/440
f 436/517/448 435/515/446 450/524/453 451/525/454
f 429/519/449 82/526/6 444/527/455
f 308/528/8 443/516/447 458/529/456
f 437/521/450 436/517/448 451/525/454 452/530/457
f 430/522/451 429/519/449 444/527/455 445/531/458
f 438/523/452 437/521/450 452/530/457 453/532/459
f 431/507/438 430/522/451 445/531/458 446/533/460
f 439/509/440 438/523/452 453/532/459 454/534/461
f 432/508/439 431/507/438 446/533/460 447/535/462
f 440/510/441 439/509/440 454/534/461 455/536/463
f 433/511/442 432/508/439 447/535/462 448/537/464
f 441/512/443 440/510/441 455/536/463 456/538/465
f 434/513/444 433/511/442 448/537/464 449/539/466
f 442/514/445 441/512/443 456/538/465 457/540/467
f 435/515/446 434/513/444 449/539/466 450/524/453
f 443/516/447 442/514/445 457/540/467 458/529/456
f 455/536/463 454/534/461 469/541/468 470/542/469
f 448/537/464 447/535/462 462/543/470 463/544/471
f 456/538/465 455/536/463 470/542/469 471/545/472
f 449/539/466 448/537/464 463/544/471 464/546/473
f 457/540/467 456/538/465 471/545/472 472/547/474
f 450/524/453 449/539/466 464/546/473 465/548/475
f 458/529/456 457/540/467 472/547/474 473/549/476
f 451/525/454 450/524/453 465/548/475 466/550/477
f 444/527/455 82/551/6 459/552/478
f 308/553/8 458/529/456 473/549/476
f 452/530/457 451/525/454 466/550/477 467/554/479
f 445/531/458 444/527/455 459/552/478 460/555/480
f 453/532/459 452/530/457 467/554/479 468/556/481
f 446/533/460 445/531/458 460/555/480 461/557/482
f 454/534/461 453/532/459 468/556/481 469/541/468
f 447/535/462 446/533/460 461/557/482 462/543/470
f 459/552/478 82/558/6 474/5/5
f 308/559/8 473/549/476 482/9/9
f 467/554/479 466/550/477 4/1/1 5/11/11
f 460/555/480 459/552/478 474/5/5 475/13/13
f 468/556/481 467/554/479 5/11/11 478/15/15
f 461/557/482 460/555/480 475/13/13 1/17/17
f 469/541/468 468/556/481 478/15/15 6/19/19
f 462/543/470 461/557/482 1/17/17 476/21/21
f 470/542/469 469/541/468 6/19/19 479/23/23
f 463/544/471 462/543/470 476/21/21 2/25/25
f 471/545/472 470/542/469 479/23/23 480/27/27
f 464/546/473 463/544/471 2/25/25 477/29/29
f 472/547/474 471/545/472 480/27/27 481/31/31
f 465/548/475 464/546/473 477/29/29 3/2/2
f 473/549/476 472/547/474 481/31/31 482/9/9
f 466/550/477 465/548/475 3/2/2 4/1/1
